<?xml version="1.0" standalone="no"?>
<!DOCTYPE svg PUBLIC "-//W3C//DTD SVG 20010904//EN"
 "http://www.w3.org/TR/2001/REC-SVG-20010904/DTD/svg10.dtd">
<svg version="1.0" xmlns="http://www.w3.org/2000/svg"
 width="300.000000pt" height="300.000000pt" viewBox="0 0 300.000000 300.000000"
 preserveAspectRatio="xMidYMid meet">
<metadata>
Created by potrace 1.14, written by Peter Selinger 2001-2017
</metadata>
<g transform="translate(0.000000,300.000000) scale(0.100000,-0.100000)"
fill="#000000" stroke="none">
<path d="M1265 2780 c-85 -14 -161 -65 -190 -125 -19 -42 -15 -137 12 -223 19
-61 40 -77 92 -67 75 15 89 16 95 6 3 -5 -17 -26 -44 -46 -73 -53 -74 -59 -34
-140 47 -96 54 -101 102 -87 64 20 69 14 23 -26 l-44 -38 44 -72 c53 -89 107
-161 135 -179 18 -12 24 -11 49 9 l28 21 -7 121 c-4 67 -9 137 -11 156 -2 19
-6 63 -9 97 -2 34 -7 66 -10 72 -3 5 -31 7 -61 6 -65 -4 -64 3 12 51 38 25 53
40 49 52 -2 9 -7 31 -10 47 -12 57 -15 70 -31 138 -23 97 -44 159 -64 181 -30
34 -83 53 -126 46z"/>
<path d="M1665 2761 c-69 -29 -108 -158 -69 -233 50 -96 148 -88 195 16 40 89
15 182 -57 212 -38 16 -41 16 -69 5z"/>
<path d="M1900 2553 c-90 -63 -182 -276 -225 -523 -34 -190 -27 -250 31 -264
32 -9 57 5 133 77 97 90 196 145 288 162 69 12 192 49 233 69 55 28 75 60 66
107 -4 24 -15 40 -37 53 -37 22 -76 19 -204 -19 -94 -27 -135 -29 -177 -8 -48
23 -53 89 -14 197 13 39 22 83 20 99 -7 62 -63 86 -114 50z"/>
<path d="M810 2552 c-14 -1 -32 -6 -40 -9 -8 -4 -17 -7 -20 -8 -47 -12 -114
-55 -148 -95 -40 -46 -58 -132 -40 -193 13 -44 85 -120 142 -149 69 -35 169
-70 217 -75 92 -10 124 39 123 187 -1 216 -99 360 -234 342z"/>
<path d="M2154 2511 c-46 -28 -85 -84 -91 -130 -5 -33 -1 -44 20 -65 33 -33
73 -33 122 0 71 48 98 97 83 151 -5 21 -19 38 -38 48 -38 20 -58 19 -96 -4z"/>
<path d="M2513 2181 c-13 -14 -34 -37 -48 -51 -50 -52 -16 -126 62 -137 59 -8
98 11 121 57 24 49 18 90 -17 124 -39 38 -88 41 -118 7z"/>
<path d="M421 2128 c-14 -7 -34 -28 -44 -46 -40 -68 5 -142 119 -197 117 -56
282 -41 366 34 l30 27 -58 18 c-74 23 -171 72 -253 126 -69 46 -122 58 -160
38z"/>
<path d="M2319 1989 c-175 -19 -341 -92 -449 -199 -80 -80 -106 -137 -84 -189
21 -51 68 -65 189 -56 55 4 117 7 139 7 51 -1 124 -38 221 -113 109 -83 164
-110 238 -114 143 -8 208 63 213 235 5 149 -31 255 -112 330 -58 54 -136 89
-210 96 -33 3 -63 6 -69 8 -5 1 -40 -1 -76 -5z m91 -168 c47 -24 71 -68 73
-132 1 -43 -3 -55 -23 -71 -32 -26 -58 -18 -149 43 -62 42 -82 50 -115 49 -70
-3 -84 0 -90 17 -4 10 3 26 20 44 68 71 198 93 284 50z"/>
<path d="M299 1854 c-51 -21 -73 -65 -73 -144 1 -119 15 -295 25 -322 20 -50
119 -64 192 -27 94 49 175 175 181 285 4 69 -5 104 -36 150 -27 40 -61 55
-126 59 -26 2 -65 5 -87 8 -23 3 -56 -2 -76 -9z"/>
<path d="M834 1830 c-52 -24 -100 -79 -129 -144 -24 -56 -39 -121 -30 -136 3
-5 31 3 62 17 50 23 60 25 87 13 104 -43 160 -57 214 -54 79 5 138 38 185 104
44 64 46 73 10 55 -16 -8 -54 -18 -85 -23 -49 -8 -68 -5 -130 15 -53 18 -84
22 -115 18 -35 -5 -43 -3 -43 9 0 39 68 46 156 16 66 -23 102 -27 154 -15 43
9 84 35 73 46 -14 14 -134 70 -177 83 -69 21 -184 19 -232 -4z"/>
<path d="M1490 1689 c-69 -7 -111 -29 -146 -74 -106 -139 -48 -319 114 -354
87 -18 222 10 271 58 97 95 93 256 -9 329 -55 41 -123 53 -230 41z"/>
<path d="M725 1441 c-151 -51 -309 -147 -357 -217 -28 -40 -47 -97 -51 -149
-10 -118 100 -341 178 -361 58 -15 113 26 142 106 89 244 117 298 208 395 108
117 136 181 99 230 -24 32 -119 30 -219 -4z m48 -142 c-17 -17 -37 -1 -22 17
8 10 15 12 23 4 7 -7 7 -13 -1 -21z m-70 6 c0 -6 -7 -11 -16 -13 -12 -3 -15 1
-11 13 7 17 25 17 27 0z m-78 -24 c3 -5 1 -12 -5 -16 -5 -3 -10 1 -10 9 0 18
6 21 15 7z m75 -61 c-12 -22 -25 -26 -36 -9 -7 12 12 29 34 29 10 0 10 -5 2
-20z m-190 -30 c0 -5 -4 -10 -10 -10 -5 0 -10 5 -10 10 0 6 5 10 10 10 6 0 10
-4 10 -10z m86 -1 c3 -6 0 -15 -7 -20 -22 -14 -29 -11 -29 11 0 21 24 27 36 9z
m50 -45 c-3 -9 -6 -18 -6 -20 0 -3 -4 -3 -10 1 -11 7 -2 35 12 35 6 0 7 -7 4
-16z m-126 -49 c0 -8 -4 -15 -10 -15 -5 0 -10 7 -10 15 0 8 5 15 10 15 6 0 10
-7 10 -15z m-60 -19 c0 -16 -18 -31 -27 -22 -8 8 5 36 17 36 5 0 10 -6 10 -14z
m128 -20 c-20 -19 -30 -9 -17 16 8 14 14 17 21 10 8 -8 6 -15 -4 -26z m-68
-57 c0 -11 -4 -17 -10 -14 -5 3 -10 13 -10 21 0 8 5 14 10 14 6 0 10 -9 10
-21z m-56 -34 c-4 -8 -10 -13 -15 -10 -4 3 -6 12 -3 20 4 8 10 13 15 10 4 -3
6 -12 3 -20z m76 -70 c0 -8 -6 -15 -14 -15 -17 0 -28 14 -19 24 12 12 33 6 33
-9z"/>
<path d="M2194 1391 c-51 -31 -87 -94 -99 -174 l-7 -46 -53 53 c-60 61 -129
110 -166 119 -78 19 -148 -67 -149 -181 0 -71 44 -142 71 -115 5 5 2 23 -10
46 -34 66 -9 181 44 205 35 16 90 -17 185 -112 78 -78 80 -81 80 -129 0 -26
-5 -58 -11 -70 -14 -27 -65 -74 -101 -93 -33 -17 -46 -65 -25 -97 25 -38 374
-197 433 -197 50 0 79 26 163 145 83 119 129 214 127 262 -3 52 -10 60 -121
142 -82 61 -167 134 -233 201 -31 30 -73 60 -87 60 -5 0 -24 -9 -41 -19z"/>
<path d="M1063 1351 c-134 -105 -171 -251 -106 -406 24 -56 84 -144 128 -185
l37 -35 38 45 c62 70 133 231 115 260 -3 5 -2 11 3 14 8 5 8 62 -1 116 -12 72
-53 163 -96 213 -14 17 -16 16 -32 -18 -44 -90 -63 -246 -41 -340 5 -22 7 -46
5 -52 -8 -22 -32 -14 -38 12 -3 14 -7 37 -10 51 -19 87 3 252 42 327 8 16 12
31 10 33 -2 3 -27 -13 -54 -35z"/>
<path d="M2556 1254 c-9 -23 22 -70 66 -100 30 -21 45 -25 71 -20 54 10 75 73
37 114 -18 19 -32 22 -94 22 -58 0 -75 -3 -80 -16z"/>
<path d="M1547 1152 c-16 -39 -33 -128 -29 -149 3 -16 -3 -16 -30 -2 -54 29
-124 -25 -108 -83 7 -24 5 -27 -26 -33 -46 -8 -68 -43 -59 -91 4 -25 3 -34 -5
-29 -18 11 -66 -14 -78 -40 -21 -45 11 -105 56 -105 19 0 22 -3 13 -14 -30
-36 -7 -111 39 -121 27 -6 27 -7 15 -43 -11 -30 -10 -40 3 -60 8 -13 28 -26
43 -29 24 -4 27 -8 19 -24 -42 -77 53 -153 115 -91 20 20 25 32 21 57 -5 28
-2 32 26 41 46 13 73 55 61 91 -10 26 -9 28 19 29 45 2 70 31 66 79 -2 36 0
40 20 39 29 -2 72 39 72 69 0 35 -36 77 -67 77 -21 0 -23 2 -13 14 6 8 14 28
16 44 5 33 -33 82 -65 82 -18 0 -19 2 -5 29 31 62 -28 124 -95 99 -22 -8 -23
-7 -16 19 3 16 22 58 40 94 36 70 33 89 -11 89 -16 0 -26 -10 -37 -38z"/>
<path d="M1781 976 c-5 -6 -13 -24 -16 -39 -4 -15 -11 -30 -16 -33 -5 -3 -9
-20 -9 -39 0 -24 7 -39 26 -54 15 -12 32 -21 39 -21 28 0 65 41 65 73 0 68
-61 147 -89 113z"/>
<path d="M794 848 c-103 -21 -175 -157 -151 -281 12 -58 116 -158 232 -221
111 -62 191 -67 267 -20 83 53 90 152 13 188 -17 9 -41 14 -53 11 -19 -3 -20
-1 -11 21 5 14 9 41 9 60 0 69 -80 116 -141 84 -17 -10 -19 -7 -19 30 0 92
-62 146 -146 128z"/>
<path d="M1841 741 c-37 -34 -38 -52 -10 -123 11 -29 20 -53 20 -53 0 0 -10
-27 -21 -60 -26 -75 -28 -111 -6 -152 37 -72 103 -80 183 -23 23 17 53 33 65
36 13 2 38 7 56 10 41 8 82 56 82 96 0 59 -36 102 -114 139 -63 30 -74 40 -96
84 -31 62 -46 74 -91 75 -27 0 -45 -8 -68 -29z m287 -190 c45 -33 60 -64 41
-87 -9 -11 -15 -12 -25 -3 -8 6 -14 17 -14 23 0 7 -16 27 -35 46 -59 57 -36
71 33 21z"/>
</g>
</svg>
